<svg width="42" height="42" viewBox="0 0 42 42" fill="none" xmlns="http://www.w3.org/2000/svg">
<path d="M3.16056 1.20273C2.58216 0.624332 1.6444 0.624332 1.06601 1.20273C0.487614 1.78112 0.487614 2.71888 1.06601 3.29727L3.16056 1.20273ZM39.5945 41.2123C40.4125 41.2123 41.0755 40.5492 41.0755 39.7312L41.0755 26.4016C41.0755 25.5836 40.4125 24.9205 39.5945 24.9205C38.7765 24.9205 38.1134 25.5836 38.1134 26.4016V38.2501H26.2649C25.4469 38.2501 24.7838 38.9132 24.7838 39.7312C24.7838 40.5492 25.4469 41.2123 26.2649 41.2123L39.5945 41.2123ZM1.06601 3.29727L38.5472 40.7785L40.6418 38.6839L3.16056 1.20273L1.06601 3.29727Z" fill="white"/>
</svg>
