<svg width="43" height="43" viewBox="0 0 43 43" fill="none" xmlns="http://www.w3.org/2000/svg">
<rect x="42.5146" y="0.012207" width="42" height="42" rx="21" transform="rotate(90 42.5146 0.012207)" fill="#27CF0C"/>
<path d="M15.3154 19.9789C15.3154 17.0565 15.3154 15.5953 16.2233 14.6874C17.1312 13.7795 18.5924 13.7795 21.5148 13.7795H24.6145C27.5368 13.7795 28.998 13.7795 29.9059 14.6874C30.8138 15.5953 30.8138 17.0565 30.8138 19.9789V25.145C30.8138 28.0674 30.8138 29.5286 29.9059 30.4365C28.998 31.3444 27.5368 31.3444 24.6145 31.3444H21.5148C18.5924 31.3444 17.1312 31.3444 16.2233 30.4365C15.3154 29.5286 15.3154 28.0674 15.3154 25.145V19.9789Z" stroke="white" stroke-width="1.54984"/>
<path d="M15.3155 28.2445C13.6036 28.2445 12.2158 26.8568 12.2158 25.1449V18.9455C12.2158 15.049 12.2158 13.1007 13.4263 11.8902C14.6368 10.6797 16.5851 10.6797 20.4816 10.6797H24.6145C26.3265 10.6797 27.7142 12.0675 27.7142 13.7794" stroke="white" stroke-width="1.54984"/>
</svg>
