<svg width="783" height="80" viewBox="0 0 783 80" fill="none" xmlns="http://www.w3.org/2000/svg">
<path d="M0 40.125V39.0278C0 26.1056 4.54541 16.3704 13.6362 9.82227C22.7619 3.27409 34.6566 0 49.3203 0C63.6357 0 74.4855 2.42074 81.8696 7.26221C89.2886 12.1037 93.7295 19.3136 95.1924 28.8921L95.4536 30.8252H76.9585L76.6973 29.3101C75.6175 24.1551 73.0226 20.1322 68.9126 17.2412C64.8374 14.3503 58.4808 12.9048 49.8428 12.9048C40.334 12.9048 32.9325 15.1165 27.6382 19.54C22.3787 23.9635 19.749 30.4072 19.749 38.8711V40.125C19.749 48.7282 22.4484 55.2938 27.8472 59.8218C33.2808 64.3149 40.6126 66.5615 49.8428 66.5615C58.5156 66.5615 64.9245 65.2205 69.0693 62.5386C73.249 59.8218 75.8265 55.7466 76.8018 50.313L77.063 48.6411H95.4536L95.2446 50.6265C94.0604 60.0656 89.8633 67.1885 82.6533 71.9951C75.4434 76.8018 64.3846 79.2051 49.4771 79.2051C34.4302 79.2051 22.4136 75.8787 13.4272 69.2261C4.47575 62.5386 0 52.8382 0 40.125Z" fill="#3A3E49"/>
<path d="M107.28 39.4458V38.7666C107.28 26.123 112.052 16.5098 121.595 9.92676C131.139 3.30892 142.947 0 157.018 0C171.055 0 182.863 3.30892 192.441 9.92676C202.02 16.5098 206.809 26.123 206.809 38.7666V39.4458C206.809 52.577 202.02 62.4863 192.441 69.1738C182.863 75.8613 171.055 79.2051 157.018 79.2051C142.947 79.2051 131.139 75.8613 121.595 69.1738C112.052 62.4863 107.28 52.577 107.28 39.4458ZM126.611 39.7593C126.611 48.5018 129.432 55.137 135.075 59.665C140.752 64.1582 148.102 66.457 157.123 66.5615C166.039 66.6312 173.337 64.3672 179.014 59.7695C184.691 55.1719 187.53 48.554 187.53 39.916V38.7666C187.53 30.4072 184.709 24.068 179.066 19.749C173.424 15.43 166.109 13.2183 157.123 13.1138C148.067 13.0441 140.718 15.221 135.075 19.6445C129.432 24.0332 126.611 30.3898 126.611 38.7144V39.7593Z" fill="#3A3E49"/>
<path d="M226.89 77.6377V1.56738H244.915L284.936 51.2534C285.458 51.9152 285.876 52.4551 286.189 52.873C286.503 53.291 286.747 53.6393 286.921 53.918H287.13C287.13 53.1517 287.13 52.5073 287.13 51.9849C287.13 51.4624 287.13 50.818 287.13 50.0518V1.56738H302.908V77.6377H285.406L245.072 27.6382C244.445 26.8719 243.975 26.2624 243.661 25.8096C243.348 25.3219 243.052 24.8691 242.773 24.4512H242.616C242.616 24.904 242.616 25.409 242.616 25.9663C242.616 26.5236 242.616 26.9764 242.616 27.3247L242.721 77.6377H226.89Z" fill="#3A3E49"/>
<path d="M321.109 16.1963V1.56738H402.195V16.1963H371.056V77.6377H352.3V16.1963H321.109Z" fill="#3A3E49"/>
<path d="M402.893 77.6377L441.241 1.3584H459.998L498.346 77.6377H477.343L452.317 23.981C451.83 22.9012 451.429 22.0827 451.116 21.5254C450.837 20.9681 450.524 20.3237 450.175 19.5923H450.019C449.705 20.3237 449.409 20.9681 449.13 21.5254C448.887 22.0827 448.486 22.9012 447.929 23.981L422.955 77.6377H402.893ZM421.179 60.501L426.769 48.1709H474.209L479.59 60.501H421.179Z" fill="#3A3E49"/>
<path d="M506.097 40.125V39.0278C506.097 26.1056 510.643 16.3704 519.734 9.82227C528.859 3.27409 540.754 0 555.418 0C569.733 0 580.583 2.42074 587.967 7.26221C595.386 12.1037 599.827 19.3136 601.29 28.8921L601.551 30.8252H583.056L582.795 29.3101C581.715 24.1551 579.12 20.1322 575.01 17.2412C570.935 14.3503 564.578 12.9048 555.94 12.9048C546.431 12.9048 539.03 15.1165 533.736 19.54C528.476 23.9635 525.846 30.4072 525.846 38.8711V40.125C525.846 48.7282 528.546 55.2938 533.945 59.8218C539.378 64.3149 546.71 66.5615 555.94 66.5615C564.613 66.5615 571.022 65.2205 575.167 62.5386C579.346 59.8218 581.924 55.7466 582.899 50.313L583.16 48.6411H601.551L601.342 50.6265C600.158 60.0656 595.961 67.1885 588.751 71.9951C581.541 76.8018 570.482 79.2051 555.575 79.2051C540.528 79.2051 528.511 75.8787 519.525 69.2261C510.573 62.5386 506.097 52.8382 506.097 40.125Z" fill="#3A3E49"/>
<path d="M609.407 16.1963V1.56738H690.493V16.1963H659.354V77.6377H640.598V16.1963H609.407Z" fill="#3A3E49"/>
<path d="M701.326 57.4707L701.065 53.709H717.888L718.202 55.9033C718.794 59.874 720.919 62.7127 724.576 64.4194C728.233 66.0913 734.294 66.9272 742.758 66.9272C751.082 66.9272 756.899 66.0216 760.208 64.2104C763.552 62.3644 765.223 59.9089 765.223 56.8438C765.223 54.2663 763.308 52.2983 759.476 50.9399C755.645 49.5467 748.296 48.1883 737.429 46.8647C724.646 45.0535 715.659 42.1452 710.47 38.1396C705.315 34.1341 702.737 29.0837 702.737 22.9883C702.737 15.848 705.82 10.2402 711.985 6.16504C718.15 2.05501 727.519 0 740.093 0C752.98 0 762.629 1.82861 769.037 5.48584C775.446 9.10824 778.982 14.5767 779.643 21.8911L779.852 24.3467H763.238L762.977 22.936C762.524 19.9754 760.783 17.5373 757.752 15.6216C754.722 13.7059 748.923 12.748 740.354 12.748C732.97 12.748 727.815 13.5666 724.889 15.2036C721.999 16.8058 720.553 18.826 720.553 21.2642C720.553 23.563 722.329 25.4961 725.882 27.0635C729.47 28.6309 736.854 30.0763 748.034 31.3999C760.817 33.2459 769.821 35.7712 775.046 38.9756C780.305 42.1452 782.935 47.2827 782.935 54.3882C782.935 62.2948 779.626 68.4076 773.008 72.7266C766.39 77.0456 756.446 79.2051 743.176 79.2051C729.835 79.2051 719.647 77.4287 712.612 73.876C705.611 70.2884 701.849 64.82 701.326 57.4707Z" fill="#3A3E49"/>
</svg>
