<svg width="841" height="181" viewBox="0 0 841 181" fill="none" xmlns="http://www.w3.org/2000/svg">
<path d="M0.34375 75V1.0625H40.6133C51.2096 1.0625 59.944 4.02474 66.8164 9.94922C73.6888 15.8737 77.125 24.9297 77.125 37.1172V38.2852C77.125 50.3372 73.638 59.4779 66.6641 65.707C59.6901 71.9023 51.0065 75 40.6133 75H0.34375ZM17.8125 62.457H38.7852C44.2357 62.457 48.9583 60.5104 52.9531 56.6172C56.9818 52.724 58.9961 46.6641 58.9961 38.4375V37.2188C58.9961 29.2292 57.0495 23.3893 53.1562 19.6992C49.2969 15.9753 44.5065 14.1133 38.7852 14.1133H17.8125V62.457Z" fill="white"/>
<path d="M84.1003 75L121.374 0.859375H139.553L176.827 75H156.464L132.139 22.8477C131.632 21.832 131.225 21.0534 130.921 20.5117C130.65 19.9362 130.362 19.293 130.057 18.582H129.905C129.6 19.293 129.313 19.9193 129.042 20.4609C128.771 21.0026 128.382 21.8151 127.874 22.8984L103.6 75H84.1003ZM101.874 58.3438L107.307 46.4102H153.366L158.647 58.3438H101.874Z" fill="white"/>
<path d="M191.724 75V1.0625H240.423C248.413 1.0625 254.54 3.11068 258.806 7.20703C263.072 11.3034 265.205 17.0078 265.205 24.3203C265.205 31.8359 263.004 37.7604 258.603 42.0938C254.236 46.3932 248.108 48.5599 240.22 48.5938H209.701V75H191.724ZM209.65 36.9648H236.208C239.865 36.9648 242.573 35.9154 244.333 33.8164C246.094 31.6836 246.974 28.8737 246.974 25.3867C246.974 21.7982 246.094 18.9544 244.333 16.8555C242.573 14.7565 239.865 13.707 236.208 13.707H209.65V36.9648ZM251.138 75L231.384 43.1094L247.736 40.1641L270.943 75H251.138Z" fill="white"/>
<path d="M287.313 75V1.0625H305.543V75H287.313Z" fill="white"/>
<path d="M320.339 75L357.612 0.859375H375.792L413.065 75H392.702L368.378 22.8477C367.87 21.832 367.464 21.0534 367.159 20.5117C366.888 19.9362 366.6 19.293 366.296 18.582H366.143C365.839 19.293 365.551 19.9193 365.28 20.4609C365.009 21.0026 364.62 21.8151 364.112 22.8984L339.839 75H320.339ZM338.112 58.3438L343.546 46.4102H389.604L394.886 58.3438H338.112Z" fill="white"/>
<path d="M0.34375 179V105.062H62.4492V118.875H18.2695V136.953H59.0977V149.09H18.2695V179H0.34375Z" fill="white"/>
<path d="M79.9362 179V105.062H145.393V118.926H96.8464V135.531H140.925V147.617H96.8464V165.645H146.155V179H79.9362Z" fill="white"/>
<path d="M166.74 179V105.062H207.009C217.606 105.062 226.34 108.025 233.212 113.949C240.085 119.874 243.521 128.93 243.521 141.117V142.285C243.521 154.337 240.034 163.478 233.06 169.707C226.086 175.902 217.402 179 207.009 179H166.74ZM184.208 166.457H205.181C210.632 166.457 215.354 164.51 219.349 160.617C223.378 156.724 225.392 150.664 225.392 142.438V141.219C225.392 133.229 223.445 127.389 219.552 123.699C215.693 119.975 210.902 118.113 205.181 118.113H184.208V166.457Z" fill="white"/>
<path d="M256.641 141.879V141.168C256.641 128.913 261.262 119.586 270.504 113.188C279.78 106.755 291.24 103.539 304.883 103.539C318.526 103.539 330.003 106.755 339.313 113.188C348.623 119.586 353.277 128.913 353.277 141.168V141.879C353.277 154.642 348.623 164.273 339.313 170.773C330.003 177.273 318.526 180.523 304.883 180.523C291.24 180.523 279.78 177.273 270.504 170.773C261.262 164.273 256.641 154.642 256.641 141.879ZM275.379 142.234C275.379 150.698 278.121 157.13 283.606 161.531C289.124 165.898 296.25 168.133 304.985 168.234C313.685 168.302 320.777 166.102 326.262 161.633C331.78 157.164 334.539 150.732 334.539 142.336V141.168C334.539 133.077 331.797 126.932 326.313 122.734C320.828 118.536 313.719 116.387 304.985 116.285C296.182 116.217 289.039 118.333 283.555 122.633C278.104 126.898 275.379 133.06 275.379 141.117V142.234Z" fill="white"/>
<path d="M372.847 179V105.062H421.546C429.535 105.062 435.663 107.111 439.929 111.207C444.194 115.303 446.327 121.008 446.327 128.32C446.327 135.836 444.126 141.76 439.725 146.094C435.358 150.393 429.231 152.56 421.343 152.594H390.823V179H372.847ZM390.772 140.965H417.331C420.987 140.965 423.696 139.915 425.456 137.816C427.216 135.684 428.097 132.874 428.097 129.387C428.097 125.798 427.216 122.954 425.456 120.855C423.696 118.757 420.987 117.707 417.331 117.707H390.772V140.965ZM432.261 179L412.507 147.109L428.858 144.164L452.065 179H432.261Z" fill="white"/>
<path d="M468.587 179V105.062H534.045V118.926H485.498V135.531H529.576V147.617H485.498V165.645H534.806V179H468.587Z" fill="white"/>
<path d="M555.391 179V105.062H572.86L611.758 153.355C612.3 153.999 612.706 154.54 612.977 154.98C613.282 155.387 613.519 155.708 613.688 155.945H613.942C613.942 155.201 613.925 154.574 613.891 154.066C613.891 153.559 613.891 152.932 613.891 152.188V105.062H629.227V179H612.266L573.063 130.402C572.453 129.658 571.979 129.065 571.641 128.625C571.336 128.151 571.065 127.711 570.828 127.305H570.676C570.676 127.745 570.676 128.236 570.676 128.777C570.676 129.319 570.676 129.759 570.676 130.098L570.778 179H555.391Z" fill="white"/>
<path d="M655.194 179V105.062H673.171V136.191L712.476 105.062H735.48L673.171 153.812V179H655.194ZM714.101 179L677.183 142.184L690.183 132.23L737.663 179H714.101Z" fill="white"/>
<path d="M743.674 141.879V141.168C743.674 128.913 748.295 119.586 757.537 113.188C766.813 106.755 778.273 103.539 791.916 103.539C805.559 103.539 817.036 106.755 826.345 113.188C835.655 119.586 840.31 128.913 840.31 141.168V141.879C840.31 154.642 835.655 164.273 826.345 170.773C817.036 177.273 805.559 180.523 791.916 180.523C778.273 180.523 766.813 177.273 757.537 170.773C748.295 164.273 743.674 154.642 743.674 141.879ZM762.412 142.234C762.412 150.698 765.154 157.13 770.638 161.531C776.157 165.898 783.283 168.133 792.017 168.234C800.718 168.302 807.81 166.102 813.295 161.633C818.813 157.164 821.572 150.732 821.572 142.336V141.168C821.572 133.077 818.83 126.932 813.345 122.734C807.861 118.536 800.752 116.387 792.017 116.285C783.215 116.217 776.072 118.333 770.588 122.633C765.137 126.898 762.412 133.06 762.412 141.117V142.234Z" fill="white"/>
<path d="M569.873 83.6054V79.7878H559.224V83.6054H557.143V77.9508H571.954V83.6054H569.873ZM562.08 67.2158L561.793 73.0426C561.736 74.3342 561.645 75.358 561.521 76.1138C561.406 76.8601 561.229 77.5394 560.99 78.1518H558.607C558.894 77.6734 559.124 77.0371 559.296 76.243C559.478 75.4489 559.607 74.296 559.684 72.7843L560.057 65.3645H569.83V79.7878H567.548V67.2158H562.08Z" fill="white"/>
<path d="M575.398 79.7878V65.3645H577.651V74.7361C577.651 75.0518 577.646 75.3628 577.636 75.6689C577.636 75.9655 577.622 76.2717 577.593 76.5874H577.723C577.866 76.3195 578.01 76.066 578.153 75.8268C578.297 75.578 578.469 75.291 578.67 74.9657L584.525 65.3645H586.879V79.7878H584.626V70.445C584.626 70.1197 584.63 69.7991 584.64 69.4834C584.65 69.1677 584.669 68.8519 584.697 68.5362H584.525C584.401 68.8041 584.262 69.072 584.109 69.3399C583.966 69.5982 583.798 69.8852 583.607 70.201L577.737 79.7878H575.398Z" fill="white"/>
<path d="M597.067 80.1753C595.049 80.1753 593.537 79.6778 592.532 78.6828C591.537 77.6782 591.04 76.487 591.04 75.1092V74.9944H593.264V75.1092C593.264 75.999 593.57 76.7453 594.183 77.3481C594.795 77.9508 595.761 78.2522 597.082 78.2522C598.201 78.2522 599.091 78.0226 599.751 77.5633C600.411 77.1041 600.741 76.4487 600.741 75.5972C600.741 74.9179 600.502 74.3773 600.024 73.9754C599.555 73.5736 598.813 73.3727 597.799 73.3727H595.374V71.5357H597.412C598.416 71.5357 599.139 71.3395 599.579 70.9473C600.019 70.5454 600.239 69.9953 600.239 69.2968C600.239 68.5218 599.971 67.9334 599.435 67.5316C598.9 67.1202 598.153 66.9145 597.197 66.9145C596.039 66.9145 595.144 67.1967 594.513 67.7612C593.891 68.3257 593.58 69.072 593.58 70.0001V70.1149H591.355V70.0001C591.355 68.4883 591.867 67.278 592.891 66.3691C593.915 65.4506 595.35 64.9913 597.197 64.9913C598.919 64.9913 600.239 65.3597 601.158 66.0964C602.076 66.8331 602.535 67.8521 602.535 69.1533C602.535 69.9092 602.282 70.5837 601.775 71.1769C601.277 71.7701 600.622 72.1528 599.809 72.325V72.3681C600.804 72.5211 601.588 72.8752 602.162 73.4301C602.736 73.985 603.023 74.7169 603.023 75.6259C603.023 77.0897 602.454 78.214 601.315 78.9985C600.186 79.7735 598.77 80.1658 597.067 80.1753Z" fill="white"/>
<path d="M606.768 75.5972C606.768 74.1525 607.332 73.0235 608.461 72.2102C609.6 71.3874 611.069 70.976 612.867 70.976H616.183V69.8278C616.183 68.9189 615.948 68.2013 615.479 67.6751C615.01 67.1393 614.212 66.8714 613.083 66.8714C611.973 66.8714 611.159 67.0962 610.643 67.5459C610.126 67.986 609.868 68.541 609.868 69.2107V69.3829H607.586V69.1533C607.586 68.0243 608.083 67.0484 609.078 66.2256C610.074 65.4028 611.427 64.9913 613.14 64.9913C614.824 64.9913 616.13 65.3836 617.058 66.1682C617.996 66.9527 618.464 68.1726 618.464 69.8278V76.3435C618.464 76.9654 618.508 77.5538 618.594 78.1087C618.689 78.6541 618.823 79.1372 618.995 79.5582V79.7878H616.814C616.68 79.5486 616.56 79.2377 616.455 78.855C616.35 78.4723 616.278 78.0848 616.24 77.6925C615.905 78.3048 615.35 78.8502 614.575 79.3286C613.81 79.807 612.819 80.0462 611.604 80.0462C610.217 80.0462 609.064 79.6635 608.146 78.898C607.227 78.1326 606.768 77.0323 606.768 75.5972ZM609.035 75.4824C609.035 76.3435 609.289 77.0084 609.796 77.4772C610.303 77.9365 611.064 78.1661 612.078 78.1661C613.121 78.1661 614.063 77.8121 614.905 77.1041C615.757 76.3865 616.183 75.6067 616.183 74.7648V72.6694H613.14C611.772 72.6694 610.743 72.923 610.054 73.4301C609.375 73.9372 609.035 74.6213 609.035 75.4824Z" fill="white"/>
<path d="M623.558 79.7878V65.3645H625.811V74.7361C625.811 75.0518 625.807 75.3628 625.797 75.6689C625.797 75.9655 625.783 76.2717 625.754 76.5874H625.883C626.027 76.3195 626.17 76.066 626.314 75.8268C626.457 75.578 626.629 75.291 626.83 74.9657L632.686 65.3645H635.039V79.7878H632.786V70.445C632.786 70.1197 632.791 69.7991 632.801 69.4834C632.81 69.1677 632.829 68.8519 632.858 68.5362H632.686C632.561 68.8041 632.423 69.072 632.27 69.3399C632.126 69.5982 631.959 69.8852 631.767 70.201L625.897 79.7878H623.558ZM629.299 61.2599C629.94 61.2599 630.49 61.0734 630.949 60.7002C631.408 60.3175 631.801 59.7147 632.126 58.8919L633.906 59.9826C633.466 61.0351 632.848 61.8244 632.054 62.3507C631.27 62.8769 630.351 63.14 629.299 63.14C628.237 63.14 627.318 62.8817 626.543 62.365C625.768 61.8483 625.151 61.0542 624.692 59.9826L626.486 58.8632C626.811 59.7434 627.199 60.3653 627.648 60.7289C628.108 61.0829 628.658 61.2599 629.299 61.2599Z" fill="white"/>
<path d="M640.176 65.3645H642.444V71.5213H649.132V65.3645H651.413V79.7878H649.132V73.3583H642.444V79.7878H640.176V65.3645Z" fill="white"/>
<path d="M655.66 72.7986V72.3394C655.66 70.1675 656.244 68.4022 657.411 67.0436C658.578 65.6754 660.124 64.9913 662.047 64.9913C663.97 64.9913 665.448 65.6276 666.481 66.9001C667.515 68.163 668.031 69.8996 668.031 72.1097V73.0426H657.024V71.1912H665.735V70.9329C665.735 69.8422 665.439 68.8998 664.845 68.1056C664.252 67.302 663.343 66.9001 662.119 66.9001C660.741 66.9001 659.703 67.4168 659.004 68.4501C658.315 69.4834 657.971 70.7798 657.971 72.3394V72.7986C657.971 74.3677 658.334 75.6737 659.062 76.7166C659.798 77.7499 660.908 78.2666 662.391 78.2666C663.329 78.2666 664.133 78.0657 664.802 77.6638C665.482 77.262 666.022 76.7692 666.424 76.1856L667.917 77.4342C667.477 78.1039 666.788 78.7306 665.85 79.3142C664.922 79.8883 663.774 80.1753 662.406 80.1753C660.234 80.1753 658.564 79.496 657.397 78.1374C656.239 76.7692 655.66 74.9896 655.66 72.7986Z" fill="white"/>
<path d="M672.178 85.9016V65.3645H674.259L674.331 67.3163H674.388C674.761 66.6944 675.34 66.1682 676.125 65.7376C676.909 65.2975 677.813 65.0775 678.837 65.0775C680.655 65.0775 682.095 65.752 683.157 67.101C684.228 68.4501 684.764 70.1914 684.764 72.325V72.7843C684.764 74.9274 684.228 76.6783 683.157 78.0369C682.095 79.3956 680.655 80.0749 678.837 80.0749C677.813 80.0749 676.938 79.8883 676.211 79.5152C675.484 79.142 674.895 78.6445 674.445 78.0226V85.9016H672.178ZM674.445 75.6115C674.742 76.2717 675.22 76.8649 675.881 77.3911C676.55 77.9078 677.359 78.1661 678.306 78.1661C679.732 78.1661 680.774 77.6542 681.435 76.6305C682.095 75.5972 682.425 74.3103 682.425 72.7699V72.325C682.425 70.7942 682.095 69.5264 681.435 68.5218C680.774 67.5077 679.732 67.0006 678.306 67.0006C677.359 67.0006 676.55 67.2589 675.881 67.7756C675.22 68.2922 674.742 68.8854 674.445 69.5552V75.6115Z" fill="white"/>
<path d="M687.92 71.7366V69.6556H695.584V71.7366H687.92Z" fill="white"/>
<path d="M699.688 84.0359L701.065 82.285C701.486 82.7251 702.065 83.1222 702.802 83.4762C703.548 83.8302 704.395 84.0072 705.342 84.0072C706.567 84.0072 707.552 83.6245 708.299 82.8591C709.045 82.1032 709.418 80.9695 709.418 79.4578V77.9939C708.987 78.6062 708.404 79.099 707.667 79.4721C706.94 79.8452 706.06 80.0318 705.026 80.0318C703.218 80.0318 701.778 79.3525 700.707 77.9939C699.645 76.6353 699.114 74.9035 699.114 72.7986V72.3394C699.114 70.244 699.645 68.5123 700.707 67.1441C701.778 65.7663 703.232 65.0775 705.069 65.0775C706.074 65.0775 706.964 65.2879 707.739 65.7089C708.514 66.1299 709.093 66.6466 709.475 67.2589H709.533L709.619 65.3645H711.7V79.4578C711.7 81.5914 711.116 83.2179 709.949 84.3373C708.791 85.4567 707.26 86.0164 705.356 86.0164C704.199 86.0164 703.132 85.8299 702.156 85.4567C701.18 85.0836 700.357 84.61 699.688 84.0359ZM701.438 72.7986C701.438 74.3295 701.769 75.602 702.429 76.6161C703.099 77.6208 704.146 78.1231 705.572 78.1231C706.519 78.1231 707.323 77.8647 707.983 77.3481C708.653 76.8314 709.131 76.2382 709.418 75.5685V69.5408C709.131 68.8806 708.653 68.2922 707.983 67.7756C707.323 67.2589 706.519 67.0006 705.572 67.0006C704.146 67.0006 703.099 67.5124 702.429 68.5362C701.769 69.5504 701.438 70.8181 701.438 72.3394V72.7986Z" fill="white"/>
<path d="M715.932 72.7986V72.3394C715.932 70.1675 716.516 68.4022 717.683 67.0436C718.851 65.6754 720.396 64.9913 722.319 64.9913C724.242 64.9913 725.72 65.6276 726.754 66.9001C727.787 68.163 728.304 69.8996 728.304 72.1097V73.0426H717.296V71.1912H726.007V70.9329C726.007 69.8422 725.711 68.8998 725.117 68.1056C724.524 67.302 723.615 66.9001 722.391 66.9001C721.013 66.9001 719.975 67.4168 719.276 68.4501C718.587 69.4834 718.243 70.7798 718.243 72.3394V72.7986C718.243 74.3677 718.607 75.6737 719.334 76.7166C720.07 77.7499 721.18 78.2666 722.663 78.2666C723.601 78.2666 724.405 78.0657 725.074 77.6638C725.754 77.262 726.294 76.7692 726.696 76.1856L728.189 77.4342C727.749 78.1039 727.06 78.7306 726.122 79.3142C725.194 79.8883 724.046 80.1753 722.678 80.1753C720.506 80.1753 718.836 79.496 717.669 78.1374C716.511 76.7692 715.932 74.9896 715.932 72.7986Z" fill="white"/>
<path d="M732.45 79.7878V65.3645H734.531L734.603 67.3019H734.66C735.167 66.5939 735.808 66.0486 736.583 65.6659C737.358 65.2736 738.215 65.0775 739.152 65.0775C740.578 65.0775 741.712 65.4889 742.554 66.3117C743.405 67.1249 743.831 68.4883 743.831 70.4019V79.7878H741.549V70.4306C741.549 69.2155 741.281 68.3496 740.745 67.833C740.209 67.3067 739.449 67.0436 738.463 67.0436C737.621 67.0436 736.875 67.278 736.224 67.7468C735.583 68.2061 735.081 68.8041 734.718 69.5408V79.7878H732.45Z" fill="white"/>
<path d="M747.934 72.7986V72.3394C747.934 70.1675 748.518 68.4022 749.685 67.0436C750.852 65.6754 752.398 64.9913 754.321 64.9913C756.244 64.9913 757.722 65.6276 758.755 66.9001C759.789 68.163 760.305 69.8996 760.305 72.1097V73.0426H749.298V71.1912H758.009V70.9329C758.009 69.8422 757.712 68.8998 757.119 68.1056C756.526 67.302 755.617 66.9001 754.392 66.9001C753.015 66.9001 751.977 67.4168 751.278 68.4501C750.589 69.4834 750.245 70.7798 750.245 72.3394V72.7986C750.245 74.3677 750.608 75.6737 751.336 76.7166C752.072 77.7499 753.182 78.2666 754.665 78.2666C755.603 78.2666 756.406 78.0657 757.076 77.6638C757.755 77.262 758.296 76.7692 758.698 76.1856L760.19 77.4342C759.75 78.1039 759.061 78.7306 758.124 79.3142C757.196 79.8883 756.048 80.1753 754.679 80.1753C752.508 80.1753 750.838 79.496 749.671 78.1374C748.513 76.7692 747.934 74.9896 747.934 72.7986Z" fill="white"/>
<path d="M764.452 79.7878V65.3645H766.533L766.604 67.2732H766.662C767.045 66.6513 767.542 66.1156 768.154 65.6659C768.776 65.2162 769.523 64.9913 770.393 64.9913C770.585 64.9913 770.795 65.0153 771.025 65.0631C771.254 65.1014 771.417 65.1396 771.513 65.1779V67.2876C771.331 67.2493 771.13 67.2206 770.91 67.2015C770.699 67.1728 770.47 67.1584 770.221 67.1584C769.427 67.1584 768.724 67.3881 768.111 67.8473C767.499 68.297 767.035 68.8663 766.719 69.5552V79.7878H764.452Z" fill="white"/>
<path d="M773.521 75.5972C773.521 74.1525 774.085 73.0235 775.214 72.2102C776.353 71.3874 777.822 70.976 779.62 70.976H782.935V69.8278C782.935 68.9189 782.701 68.2013 782.232 67.6751C781.763 67.1393 780.964 66.8714 779.836 66.8714C778.726 66.8714 777.912 67.0962 777.396 67.5459C776.879 67.986 776.621 68.541 776.621 69.2107V69.3829H774.339V69.1533C774.339 68.0243 774.836 67.0484 775.831 66.2256C776.826 65.4028 778.18 64.9913 779.893 64.9913C781.577 64.9913 782.883 65.3836 783.811 66.1682C784.749 66.9527 785.217 68.1726 785.217 69.8278V76.3435C785.217 76.9654 785.26 77.5538 785.347 78.1087C785.442 78.6541 785.576 79.1372 785.748 79.5582V79.7878H783.567C783.433 79.5486 783.313 79.2377 783.208 78.855C783.103 78.4723 783.031 78.0848 782.993 77.6925C782.658 78.3048 782.103 78.8502 781.328 79.3286C780.563 79.807 779.572 80.0462 778.357 80.0462C776.97 80.0462 775.817 79.6635 774.899 78.898C773.98 78.1326 773.521 77.0323 773.521 75.5972ZM775.788 75.4824C775.788 76.3435 776.042 77.0084 776.549 77.4772C777.056 77.9365 777.817 78.1661 778.831 78.1661C779.874 78.1661 780.816 77.8121 781.658 77.1041C782.51 76.3865 782.935 75.6067 782.935 74.7648V72.6694H779.893C778.525 72.6694 777.496 72.923 776.807 73.4301C776.128 73.9372 775.788 74.6213 775.788 75.4824Z" fill="white"/>
<path d="M790.383 79.7878V58.1456H792.665V79.7878H790.383Z" fill="white"/>
<path d="M798.002 79.7878V65.3645H800.27V79.7878H798.002ZM797.672 60.6572C797.672 60.2553 797.797 59.9204 798.045 59.6525C798.304 59.3751 798.667 59.2364 799.136 59.2364C799.605 59.2364 799.964 59.3751 800.212 59.6525C800.471 59.9204 800.6 60.2553 800.6 60.6572C800.6 61.059 800.471 61.3987 800.212 61.6761C799.964 61.944 799.605 62.078 799.136 62.078C798.667 62.078 798.304 61.944 798.045 61.6761C797.797 61.3987 797.672 61.059 797.672 60.6572Z" fill="white"/>
<path d="M804.732 75.468H807.014V75.6259C807.014 76.5252 807.32 77.1902 807.932 77.6208C808.554 78.0417 809.387 78.2522 810.43 78.2522C811.482 78.2522 812.305 78.0513 812.898 77.6495C813.491 77.2476 813.788 76.6879 813.788 75.9703C813.788 75.2814 813.534 74.76 813.027 74.406C812.53 74.052 811.516 73.6836 809.985 73.3009C808.444 72.9182 807.244 72.4063 806.383 71.7653C805.531 71.1147 805.105 70.201 805.105 69.0241C805.105 67.8377 805.579 66.8714 806.526 66.1251C807.473 65.3693 808.746 64.9913 810.344 64.9913C811.941 64.9913 813.228 65.3741 814.204 66.1395C815.18 66.8953 815.668 67.9478 815.668 69.2968V69.4403H813.4V69.2538C813.4 68.4692 813.142 67.8808 812.625 67.4885C812.118 67.0962 811.358 66.9001 810.344 66.9001C809.339 66.9001 808.593 67.0867 808.105 67.4598C807.617 67.8234 807.373 68.3113 807.373 68.9237C807.373 69.5073 807.636 69.9714 808.162 70.3158C808.698 70.6507 809.722 71.0095 811.233 71.3922C812.755 71.7749 813.936 72.3011 814.778 72.9708C815.62 73.631 816.041 74.583 816.041 75.8268C816.041 77.1089 815.572 78.1565 814.635 78.9698C813.707 79.7735 812.31 80.1753 810.444 80.1753C808.578 80.1753 807.158 79.7687 806.182 78.9555C805.215 78.1326 804.732 77.0228 804.732 75.6259V75.468Z" fill="white"/>
<path d="M818.394 67.1871V65.3645H826.488V67.1871H818.394ZM820.963 76.0995V61.1595H823.245V76.0995C823.245 76.9032 823.383 77.4533 823.661 77.7499C823.938 78.0369 824.374 78.1805 824.967 78.1805C825.216 78.1805 825.459 78.1565 825.699 78.1087C825.947 78.0513 826.191 77.9748 826.431 77.8791V79.8022C826.211 79.8979 825.919 79.984 825.555 80.0605C825.201 80.1371 824.814 80.1753 824.393 80.1753C823.35 80.1753 822.517 79.8596 821.895 79.2281C821.274 78.5967 820.963 77.5538 820.963 76.0995Z" fill="white"/>
</svg>
