<svg width="875" height="80" viewBox="0 0 875 80" fill="none" xmlns="http://www.w3.org/2000/svg">
<path d="M0 77.6377V1.56738H67.3975V15.8306H17.3979V32.915H62.7476V45.3496H17.3979V63.897H68.1812V77.6377H0Z" fill="#C8D2EC"/>
<path d="M78.4402 77.6377L113.445 34.5869L117.102 33.96L143.121 1.56738H162.034L127.917 43.8867L123.999 44.6182L97.51 77.6377H78.4402ZM79.6419 1.56738H101.272L126.454 33.2285L127.081 33.9077L162.818 77.6377H141.135L114.229 44.2524L113.602 43.521L79.6419 1.56738Z" fill="#C8D2EC"/>
<path d="M177.988 77.6377V1.56738H226.315C235.894 1.56738 242.999 3.95329 247.632 8.7251C252.264 13.4621 254.581 20.1844 254.581 28.8921C254.581 37.0425 252.299 43.6255 247.736 48.6411C243.174 53.6567 235.911 56.1646 225.95 56.1646H196.483V77.6377H177.988ZM196.483 43.6255H221.352C226.786 43.6255 230.6 42.3368 232.794 39.7593C234.988 37.1818 236.085 33.6813 236.085 29.2578C236.085 24.695 234.971 21.1945 232.742 18.7563C230.547 16.3182 226.751 15.0991 221.352 15.0991H196.483V43.6255Z" fill="#C8D2EC"/>
<path d="M273.774 77.6377V1.56738H341.171V15.8306H291.172V32.915H336.521V45.3496H291.172V63.897H341.955V77.6377H273.774Z" fill="#C8D2EC"/>
<path d="M363.081 77.6377V1.56738H413.237C421.457 1.56738 427.762 3.67464 432.15 7.88916C436.539 12.1037 438.733 17.9727 438.733 25.4961C438.733 33.2285 436.469 39.3239 431.941 43.7822C427.448 48.2057 421.144 50.4349 413.028 50.4697H381.576V77.6377H363.081ZM381.576 38.5054H408.901C412.663 38.5054 415.449 37.4256 417.26 35.2661C419.071 33.0718 419.977 30.1808 419.977 26.5933C419.977 22.9012 419.054 19.9754 417.208 17.8159C415.397 15.6564 412.628 14.5767 408.901 14.5767H381.576V38.5054ZM424.261 77.6377L403.938 44.8271L420.761 41.7969L444.637 77.6377H424.261Z" fill="#C8D2EC"/>
<path d="M461.532 77.6377V1.56738H480.288V77.6377H461.532Z" fill="#C8D2EC"/>
<path d="M506.9 77.6377V1.56738H574.297V15.8306H524.298V32.915H569.648V45.3496H524.298V63.897H575.081V77.6377H506.9Z" fill="#C8D2EC"/>
<path d="M596.207 77.6377V1.56738H614.232L654.253 51.2534C654.775 51.9152 655.193 52.4551 655.507 52.873C655.82 53.291 656.064 53.6393 656.238 53.918H656.447C656.447 53.1517 656.447 52.5073 656.447 51.9849C656.447 51.4624 656.447 50.818 656.447 50.0518V1.56738H672.225V77.6377H654.723L614.389 27.6382C613.762 26.8719 613.292 26.2624 612.978 25.8096C612.665 25.3219 612.369 24.8691 612.09 24.4512H611.933C611.933 24.904 611.933 25.409 611.933 25.9663C611.933 26.5236 611.933 26.9764 611.933 27.3247L612.038 77.6377H596.207Z" fill="#C8D2EC"/>
<path d="M692.307 40.125V39.0278C692.307 26.1056 696.852 16.3704 705.943 9.82227C715.069 3.27409 726.963 0 741.627 0C755.942 0 766.792 2.42074 774.176 7.26221C781.595 12.1037 786.036 19.3136 787.499 28.8921L787.76 30.8252H769.265L769.004 29.3101C767.924 24.1551 765.329 20.1322 761.219 17.2412C757.144 14.3503 750.787 12.9048 742.149 12.9048C732.641 12.9048 725.239 15.1165 719.945 19.54C714.685 23.9635 712.056 30.4072 712.056 38.8711V40.125C712.056 48.7282 714.755 55.2938 720.154 59.8218C725.587 64.3149 732.919 66.5615 742.149 66.5615C750.822 66.5615 757.231 65.2205 761.376 62.5386C765.556 59.8218 768.133 55.7466 769.108 50.313L769.37 48.6411H787.76L787.551 50.6265C786.367 60.0656 782.17 67.1885 774.96 71.9951C767.75 76.8018 756.691 79.2051 741.784 79.2051C726.737 79.2051 714.72 75.8787 705.734 69.2261C696.782 62.5386 692.307 52.8382 692.307 40.125Z" fill="#C8D2EC"/>
<path d="M805.856 77.6377V1.56738H873.254V15.8306H823.254V32.915H868.604V45.3496H823.254V63.897H874.037V77.6377H805.856Z" fill="#C8D2EC"/>
</svg>
