<svg width="1027" height="1020" viewBox="0 0 1027 1020" fill="none" xmlns="http://www.w3.org/2000/svg">
<path opacity="0.2" d="M513.5 0L527.433 449.949L723.173 44.5673L552.89 461.284L896.591 170.563L571.537 481.992L1003.77 356.202L580.148 508.495L1026.18 569.384L577.235 536.209L959.936 773.25L563.302 560.342L816.503 932.548L540.757 576.721L620.678 1019.74L513.5 582.515L406.322 1019.74L486.243 576.721L210.497 932.548L463.698 560.342L67.0639 773.25L449.765 536.209L0.823975 569.384L446.852 508.495L23.2304 356.202L455.463 481.992L130.409 170.563L474.11 461.284L303.827 44.5673L499.567 449.949L513.5 0Z" fill="#EBB6D5"/>
</svg>
