<svg width="877" height="871" viewBox="0 0 877 871" fill="none" xmlns="http://www.w3.org/2000/svg">
<path opacity="0.2" d="M438.245 0L450.144 384.264L617.308 38.0612L471.885 393.943L765.41 145.663L487.809 411.629L856.942 304.202L495.163 434.262L876.078 486.263L492.675 457.93L819.508 660.367L480.776 478.54L697.014 796.41L461.523 492.529L529.777 870.869L438.245 497.476L346.713 870.869L414.966 492.529L179.475 796.41L395.713 478.54L56.9816 660.367L383.814 457.93L0.411713 486.263L381.326 434.262L19.5471 304.202L388.68 411.629L111.079 145.663L404.605 393.943L259.181 38.0612L426.345 384.264L438.245 0Z" fill="#D9D9D9"/>
</svg>
