<svg width="538" height="80" viewBox="0 0 538 80" fill="none" xmlns="http://www.w3.org/2000/svg">
<g opacity="0.2">
<path d="M27.1157 77.8989L0 1.56738H18.2861L37.7217 56.9482C37.8958 57.5404 38.0352 57.9932 38.1396 58.3066C38.279 58.6201 38.4531 59.0729 38.6621 59.665H38.8188C39.0278 59.0729 39.1846 58.6201 39.2891 58.3066C39.4284 57.9932 39.6025 57.5404 39.8115 56.9482L60.3442 1.56738H76.0703L97.23 57.0527C97.439 57.6797 97.6131 58.1499 97.7524 58.4634C97.8918 58.7769 98.0485 59.1774 98.2227 59.665H98.4316C98.6058 59.1774 98.7451 58.7594 98.8496 58.4111C98.9889 58.0628 99.1457 57.61 99.3198 57.0527L118.181 1.56738H135.422L108.306 77.8989H89.9678L68.9126 23.145C68.7036 22.6226 68.5469 22.222 68.4424 21.9434C68.3379 21.6647 68.216 21.2816 68.0767 20.7939H67.9199C67.7458 21.2816 67.6064 21.6647 67.502 21.9434C67.3975 22.222 67.2581 22.6226 67.084 23.145L45.9243 77.8989H27.1157Z" fill="#3A3E49"/>
<path d="M145.942 39.4458V38.7666C145.942 26.123 150.714 16.5098 160.258 9.92676C169.801 3.30892 181.609 0 195.68 0C209.717 0 221.525 3.30892 231.103 9.92676C240.682 16.5098 245.471 26.123 245.471 38.7666V39.4458C245.471 52.577 240.682 62.4863 231.103 69.1738C221.525 75.8613 209.717 79.2051 195.68 79.2051C181.609 79.2051 169.801 75.8613 160.258 69.1738C150.714 62.4863 145.942 52.577 145.942 39.4458ZM165.273 39.7593C165.273 48.5018 168.094 55.137 173.737 59.665C179.414 64.1582 186.764 66.457 195.785 66.5615C204.702 66.6312 211.999 64.3672 217.676 59.7695C223.353 55.1719 226.192 48.554 226.192 39.916V38.7666C226.192 30.4072 223.371 24.068 217.728 19.749C212.086 15.43 204.771 13.2183 195.785 13.1138C186.729 13.0441 179.38 15.221 173.737 19.6445C168.094 24.0332 165.273 30.3898 165.273 38.7144V39.7593Z" fill="#3A3E49"/>
<path d="M265.552 77.6377V1.56738H315.708C323.929 1.56738 330.233 3.67464 334.622 7.88916C339.01 12.1037 341.205 17.9727 341.205 25.4961C341.205 33.2285 338.941 39.3239 334.413 43.7822C329.919 48.2057 323.615 50.4349 315.5 50.4697H284.047V77.6377H265.552ZM284.047 38.5054H311.372C315.134 38.5054 317.92 37.4256 319.731 35.2661C321.543 33.0718 322.448 30.1808 322.448 26.5933C322.448 22.9012 321.525 19.9754 319.679 17.8159C317.868 15.6564 315.099 14.5767 311.372 14.5767H284.047V38.5054ZM326.732 77.6377L306.409 44.8271L323.232 41.7969L347.108 77.6377H326.732Z" fill="#3A3E49"/>
<path d="M364.159 77.6377V1.56738H382.655V33.5942L423.093 1.56738H446.761L382.655 51.7236V77.6377H364.159ZM424.817 77.6377L386.782 39.7593L400.157 29.519L449.059 77.6377H424.817Z" fill="#3A3E49"/>
<path d="M456.288 57.4707L456.027 53.709H472.85L473.164 55.9033C473.756 59.874 475.88 62.7127 479.538 64.4194C483.195 66.0913 489.255 66.9272 497.719 66.9272C506.044 66.9272 511.861 66.0216 515.169 64.2104C518.513 62.3644 520.185 59.9089 520.185 56.8438C520.185 54.2663 518.269 52.2983 514.438 50.9399C510.607 49.5467 503.257 48.1883 492.39 46.8647C479.607 45.0535 470.621 42.1452 465.431 38.1396C460.276 34.1341 457.699 29.0837 457.699 22.9883C457.699 15.848 460.781 10.2402 466.946 6.16504C473.111 2.05501 482.481 0 495.055 0C507.942 0 517.59 1.82861 523.999 5.48584C530.408 9.10824 533.943 14.5767 534.605 21.8911L534.814 24.3467H518.2L517.938 22.936C517.486 19.9754 515.744 17.5373 512.714 15.6216C509.684 13.7059 503.884 12.748 495.316 12.748C487.932 12.748 482.777 13.5666 479.851 15.2036C476.96 16.8058 475.515 18.826 475.515 21.2642C475.515 23.563 477.291 25.4961 480.844 27.0635C484.431 28.6309 491.815 30.0763 502.996 31.3999C515.779 33.2459 524.783 35.7712 530.007 38.9756C535.267 42.1452 537.896 47.2827 537.896 54.3882C537.896 62.2948 534.588 68.4076 527.97 72.7266C521.352 77.0456 511.408 79.2051 498.137 79.2051C484.797 79.2051 474.609 77.4287 467.573 73.876C460.572 70.2884 456.811 64.82 456.288 57.4707Z" fill="#3A3E49"/>
</g>
</svg>
