<svg width="51" height="51" viewBox="0 0 51 51" fill="none" xmlns="http://www.w3.org/2000/svg">
<rect width="51" height="51" rx="9.89552" fill="white" fill-opacity="0.2"/>
<path d="M33.7884 34.3996H17.2122C11.2793 34.3996 9.47559 32.5959 9.47559 26.663V17.2122C9.47559 11.2793 11.2793 9.47559 17.2122 9.47559H33.7735C39.7064 9.47559 41.5101 11.2793 41.5101 17.2122V26.6481C41.525 32.5959 39.7213 34.3996 33.7884 34.3996ZM17.2122 11.7116C12.5315 11.7116 11.7116 12.5315 11.7116 17.2122V26.6481C11.7116 31.3288 12.5315 32.1487 17.2122 32.1487H33.7735C38.4542 32.1487 39.2741 31.3288 39.2741 26.6481V17.2122C39.2741 12.5315 38.4542 11.7116 33.7735 11.7116H17.2122Z" fill="white"/>
<path d="M25.5008 41.5245C24.8896 41.5245 24.3828 41.0177 24.3828 40.4065V33.2811C24.3828 32.6699 24.8896 32.1631 25.5008 32.1631C26.112 32.1631 26.6188 32.6699 26.6188 33.2811V40.4065C26.6188 41.0177 26.112 41.5245 25.5008 41.5245Z" fill="white"/>
<path d="M40.407 28.1091H10.5936C9.98241 28.1091 9.47559 27.6022 9.47559 26.9911C9.47559 26.3799 9.98241 25.873 10.5936 25.873H40.407C41.0182 25.873 41.525 26.3799 41.525 26.9911C41.525 27.6022 41.0182 28.1091 40.407 28.1091Z" fill="white"/>
<path d="M32.2089 41.5251H18.7928C18.1816 41.5251 17.6748 41.0182 17.6748 40.4071C17.6748 39.7959 18.1816 39.2891 18.7928 39.2891H32.2089C32.82 39.2891 33.3269 39.7959 33.3269 40.4071C33.3269 41.0182 32.82 41.5251 32.2089 41.5251Z" fill="white"/>
</svg>
