<svg width="158" height="158" viewBox="0 0 158 158" fill="none" xmlns="http://www.w3.org/2000/svg">
<path d="M137.914 100.778C138.417 99.467 139.883 98.7957 141.216 99.3074C142.549 99.8191 143.19 101.299 142.687 102.61C142.183 103.92 140.695 104.583 139.384 104.08C138.062 103.573 137.411 102.089 137.914 100.778Z" fill="white"/>
<path d="M123.657 120.732L128.021 125.358L127.183 126.148L125.331 124.184L122.695 126.671L124.547 128.635L123.71 129.426L119.345 124.8L120.183 124.009L122.011 125.947L124.647 123.46L122.819 121.522L123.657 120.732Z" fill="white"/>
<path d="M113.47 129.345L114.248 130.441L114.443 130.611L115.771 132.479C116.054 132.877 116.389 133.1 116.777 133.148C117.162 133.208 117.587 133.073 118.05 132.744C118.356 132.526 118.619 132.261 118.838 131.948C119.062 131.642 119.215 131.332 119.297 131.019L120.189 131.445C120.074 131.85 119.871 132.24 119.578 132.615C119.283 133.001 118.93 133.34 118.519 133.632C117.809 134.138 117.138 134.354 116.508 134.282C115.877 134.21 115.309 133.818 114.804 133.108L112.58 129.978L113.47 129.345ZM115.13 128.077C115.515 127.803 115.9 127.627 116.286 127.549C116.666 127.476 117.015 127.498 117.334 127.614C117.657 127.738 117.923 127.946 118.131 128.24C118.331 128.52 118.446 128.821 118.478 129.142C118.503 129.467 118.415 129.805 118.212 130.155C118.003 130.51 117.641 130.871 117.126 131.237L115.482 132.405L115.003 131.73L116.607 130.59C117.076 130.256 117.337 129.953 117.389 129.681C117.441 129.408 117.388 129.161 117.23 128.939C117.049 128.685 116.802 128.552 116.489 128.539C116.18 128.533 115.846 128.657 115.488 128.912C115.136 129.162 114.885 129.458 114.735 129.8C114.579 130.147 114.549 130.511 114.645 130.895L114 130.381C113.906 129.987 113.951 129.587 114.134 129.182C114.322 128.783 114.654 128.415 115.13 128.077Z" fill="white"/>
<path d="M110.507 131.346L113.496 136.96L108.296 139.73L105.307 134.116L106.323 133.574L108.974 138.553L108.595 138.428L112.249 136.482L112.141 136.866L109.49 131.888L110.507 131.346Z" fill="white"/>
<path d="M103.016 135.211L105.16 141.199L104.076 141.587L102.514 137.226L100.404 142.902L99.4215 143.254L97.2768 137.267L98.3614 136.878L99.9233 141.239L102.022 135.567L103.016 135.211Z" fill="white"/>
<path d="M91.3185 138.682C91.9531 138.551 92.5494 138.57 93.1075 138.741C93.6577 138.913 94.1232 139.209 94.504 139.629C94.8848 140.048 95.1391 140.568 95.267 141.187C95.3949 141.806 95.3672 142.383 95.1839 142.919C95.0006 143.456 94.6897 143.908 94.2511 144.276C93.8064 144.654 93.2667 144.908 92.6321 145.04C92.068 145.156 91.5431 145.146 91.0575 145.01C90.5656 144.882 90.1529 144.625 89.8193 144.236L90.5631 143.507C90.8299 143.77 91.1268 143.941 91.4536 144.021C91.7742 144.11 92.103 144.12 92.4399 144.05C92.8473 143.966 93.193 143.8 93.4769 143.554C93.7609 143.307 93.9629 143 94.083 142.632C94.2046 142.272 94.2193 141.869 94.1271 141.422C94.0348 140.976 93.8607 140.607 93.6046 140.317C93.3486 140.027 93.0414 139.825 92.6829 139.711C92.3245 139.597 91.9416 139.582 91.5342 139.667C91.1973 139.736 90.8985 139.871 90.6378 140.072C90.3708 140.283 90.167 140.562 90.0265 140.909L89.0569 140.546C89.2107 140.065 89.4867 139.661 89.8847 139.333C90.2764 139.016 90.7544 138.798 91.3185 138.682Z" fill="white"/>
<path d="M82.7753 139.897L82.8841 141.236L82.9643 141.483L83.1497 143.767C83.1892 144.253 83.3631 144.617 83.6716 144.856C83.9727 145.105 84.4063 145.206 84.9724 145.16C85.3472 145.13 85.7088 145.036 86.0572 144.879C86.4064 144.731 86.6961 144.543 86.9265 144.315L87.4748 145.138C87.1692 145.427 86.7947 145.658 86.3512 145.831C85.9004 146.012 85.4238 146.123 84.9214 146.164C84.0523 146.234 83.3653 146.077 82.8606 145.693C82.3558 145.308 82.0682 144.682 81.9976 143.812L81.6869 139.985L82.7753 139.897ZM84.8507 139.656C85.3211 139.618 85.7422 139.664 86.114 139.794C86.4778 139.925 86.7667 140.122 86.9807 140.386C87.1954 140.658 87.3173 140.973 87.3464 141.331C87.3742 141.674 87.3198 141.992 87.1829 142.284C87.0381 142.577 86.7891 142.821 86.4359 143.019C86.0748 143.217 85.5792 143.341 84.9493 143.392L82.9399 143.555L82.8729 142.73L84.8344 142.571C85.4086 142.524 85.7875 142.397 85.9713 142.19C86.1551 141.982 86.236 141.743 86.214 141.472C86.1888 141.161 86.0448 140.919 85.7821 140.748C85.52 140.585 85.1697 140.521 84.7311 140.557C84.3006 140.592 83.9336 140.718 83.6301 140.935C83.3187 141.153 83.1062 141.451 82.9924 141.829L82.7011 141.058C82.8222 140.671 83.065 140.351 83.4296 140.096C83.7949 139.85 84.2686 139.703 84.8507 139.656Z" fill="white"/>
<path d="M77.6386 139.993L77.4205 145.641L77.1443 145.33L79.7583 145.431L79.7194 146.438L73.9158 146.214L73.9546 145.207L76.5567 145.307L76.2693 145.596L76.4874 139.948L77.6386 139.993Z" fill="white"/>
<path d="M68.8154 143.408C68.0182 143.276 67.4377 143 67.074 142.579C66.7102 142.158 66.5786 141.624 66.6793 140.976C66.7848 140.296 67.0957 139.806 67.6119 139.505C68.1269 139.213 68.8027 139.136 69.6394 139.274L72.3649 139.709L71.3892 145.994L70.2509 145.817L70.5804 143.694L68.8154 143.408ZM69.5999 140.154C69.0873 140.066 68.684 140.109 68.39 140.282C68.0881 140.454 67.9046 140.749 67.8395 141.168C67.7757 141.579 67.8595 141.9 68.0909 142.13C68.3223 142.36 68.6983 142.52 69.2188 142.609L70.7093 142.864L71.0922 140.398L69.5999 140.154Z" fill="white"/>
<path d="M61.3591 137.507L59.192 143.487L56.4167 142.481C55.7172 142.227 55.2172 141.893 54.9167 141.478C54.606 141.067 54.5392 140.618 54.7164 140.129C54.8936 139.64 55.223 139.329 55.7048 139.198C56.1762 139.071 56.7241 139.12 57.3484 139.347L57.0728 139.579C56.3583 139.32 55.8757 138.996 55.6252 138.607C55.3746 138.219 55.342 137.769 55.5274 137.257C55.7154 136.738 56.0582 136.403 56.5556 136.251C57.0428 136.105 57.685 136.176 58.4822 136.465L61.3591 137.507ZM59.9961 137.958L58.2586 137.328C57.8074 137.164 57.4444 137.11 57.1697 137.163C56.8922 137.224 56.6977 137.409 56.5859 137.717C56.4714 138.033 56.4936 138.301 56.6524 138.52C56.8009 138.744 57.0971 138.937 57.5408 139.097L59.3459 139.752L59.9961 137.958ZM59.0638 140.53L57.4392 139.941C57.0255 139.791 56.6861 139.753 56.421 139.827C56.1457 139.906 55.9576 140.085 55.8567 140.363C55.7531 140.649 55.7845 140.903 55.9508 141.125C56.1096 141.344 56.3959 141.529 56.8095 141.679L58.4341 142.267L59.0638 140.53Z" fill="white"/>
<path d="M48.2279 131.599C48.7825 131.918 49.1265 132.315 49.2598 132.789C49.3932 133.263 49.3001 133.777 48.9807 134.331L46.0701 139.385L45.0718 138.81L47.9585 133.798C48.1302 133.5 48.1892 133.229 48.1354 132.986C48.0747 132.739 47.9057 132.535 47.6284 132.375C47.3165 132.196 47.0066 132.133 46.6988 132.186L46.8001 131.289C47.0285 131.245 47.2681 131.254 47.5189 131.315C47.7628 131.373 47.9992 131.467 48.2279 131.599ZM48.1738 137.896L47.7007 138.718L44.186 136.694L44.6591 135.872L48.1738 137.896Z" fill="white"/>
<path d="M43.0622 128.207C43.6077 128.613 44.0054 129.084 44.2554 129.619C44.4989 130.149 44.5905 130.696 44.5302 131.26C44.4634 131.818 44.2414 132.351 43.864 132.858C43.4867 133.365 43.0432 133.733 42.5336 133.962C42.0177 134.186 41.4859 134.264 40.9385 134.196C40.3798 134.129 39.8566 133.914 39.3689 133.551C38.8748 133.183 38.5196 132.75 38.3034 132.25C38.0871 131.75 38.0212 131.222 38.1056 130.666C38.1787 130.112 38.4112 129.572 38.8028 129.046C38.8315 129.008 38.8682 128.965 38.9128 128.919C38.951 128.867 38.99 128.821 39.0299 128.781L43.3713 132.013L42.8769 132.677L39.0168 129.804L39.5642 129.852C39.3142 130.175 39.1642 130.517 39.1143 130.879C39.0645 131.24 39.1121 131.585 39.2573 131.912C39.3913 132.242 39.622 132.528 39.9493 132.772C40.2701 133.01 40.6107 133.149 40.9708 133.188C41.3262 133.233 41.6724 133.176 42.0094 133.018C42.3416 132.867 42.632 132.624 42.8803 132.29L42.995 132.136C43.2481 131.796 43.398 131.434 43.4446 131.05C43.48 130.667 43.4115 130.297 43.2389 129.94C43.0664 129.582 42.7973 129.267 42.4315 128.994C42.1299 128.77 41.8189 128.618 41.4986 128.539C41.1719 128.456 40.8391 128.447 40.5001 128.514L40.4341 127.538C40.8658 127.44 41.3074 127.45 41.7591 127.566C42.2043 127.678 42.6387 127.892 43.0622 128.207Z" fill="white"/>
<path d="M38.5654 124.691L32.526 131.233L31.6795 130.452L37.7189 123.909L38.5654 124.691Z" fill="white"/>
<path d="M33.3792 119.388C33.8257 119.901 34.1141 120.445 34.2443 121.021C34.3694 121.591 34.3424 122.145 34.1635 122.683C33.9793 123.214 33.6488 123.688 33.1722 124.103C32.6955 124.518 32.1838 124.783 31.6372 124.898C31.0853 125.007 30.5491 124.97 30.0288 124.787C29.4972 124.603 29.0318 124.281 28.6325 123.823C28.2281 123.358 27.9734 122.858 27.8686 122.324C27.7639 121.789 27.8118 121.26 28.0126 120.735C28.202 120.209 28.5441 119.731 29.0389 119.3C29.0751 119.269 29.12 119.235 29.1735 119.199C29.2218 119.157 29.2696 119.121 29.3171 119.09L32.8708 123.172L32.2463 123.715L29.0866 120.086L29.6111 120.25C29.2982 120.512 29.0788 120.814 28.953 121.157C28.8272 121.5 28.8004 121.847 28.8725 122.198C28.9334 122.548 29.0977 122.877 29.3656 123.184C29.6283 123.486 29.9314 123.694 30.2751 123.809C30.6127 123.928 30.963 123.947 31.3259 123.864C31.6828 123.787 32.0182 123.612 32.3319 123.339L32.4767 123.212C32.7965 122.934 33.0201 122.612 33.1474 122.247C33.2635 121.88 33.2753 121.504 33.183 121.118C33.0906 120.732 32.8947 120.366 32.5953 120.023C32.3484 119.739 32.0769 119.525 31.7807 119.379C31.4793 119.228 31.1559 119.149 30.8105 119.142L30.954 118.174C31.3965 118.17 31.826 118.274 32.2424 118.484C32.6536 118.688 33.0325 118.99 33.3792 119.388Z" fill="white"/>
<path d="M30.2304 111.518C30.5457 112.01 30.7817 112.533 30.9383 113.089C31.0973 113.633 31.1418 114.132 31.0716 114.585L30.0261 114.6C30.0818 114.213 30.0536 113.799 29.9416 113.357C29.8363 112.912 29.6562 112.49 29.4014 112.093C28.9954 111.46 28.5492 111.09 28.0629 110.984C27.5765 110.878 27.0304 111.019 26.4243 111.408L25.293 112.133L24.1677 112.713L23.1294 113.45L21.6648 114.389L21.0752 113.47L25.7013 110.503C26.6441 109.898 27.4888 109.689 28.2356 109.875C28.9824 110.061 29.6473 110.609 30.2304 111.518ZM28.0658 113.078C28.3984 113.596 28.5887 114.13 28.6367 114.679C28.6736 115.225 28.5746 115.745 28.3395 116.238C28.1001 116.724 27.7245 117.132 27.2128 117.46C26.6943 117.792 26.1675 117.964 25.6325 117.975C25.0865 117.983 24.5761 117.854 24.1015 117.588C23.6225 117.315 23.2167 116.92 22.8842 116.401C22.5905 115.944 22.4169 115.466 22.3636 114.968C22.3035 114.474 22.3941 113.993 22.6354 113.524C22.8724 113.049 23.2838 112.624 23.8696 112.248C24.4488 111.876 25.0036 111.682 25.5343 111.665C26.0607 111.641 26.5424 111.755 26.9796 112.007C27.41 112.263 27.7721 112.62 28.0658 113.078ZM27.1461 113.511C26.9172 113.154 26.6401 112.885 26.3149 112.704C25.9896 112.523 25.646 112.439 25.2841 112.453C24.9178 112.46 24.5629 112.573 24.2195 112.793C23.8761 113.014 23.6249 113.289 23.4659 113.619C23.3027 113.942 23.2389 114.287 23.2746 114.654C23.3035 115.025 23.4324 115.389 23.6614 115.746C23.8903 116.103 24.1695 116.375 24.4991 116.563C24.8176 116.748 25.16 116.838 25.5262 116.831C25.8882 116.817 26.2409 116.7 26.5843 116.48C26.9277 116.26 27.1811 115.988 27.3444 115.665C27.5033 115.335 27.5683 114.984 27.5394 114.613C27.5061 114.235 27.375 113.868 27.1461 113.511Z" fill="white"/>
<path d="M24.8028 107.083L19.072 109.841L18.5932 108.846L20.1503 108.097L19.8078 108.381C19.335 108.414 18.9039 108.293 18.5145 108.018C18.125 107.744 17.7984 107.333 17.5348 106.785L18.5404 106.301C18.554 106.348 18.5712 106.393 18.592 106.436C18.6093 106.472 18.6267 106.508 18.644 106.544C18.9112 107.099 19.2886 107.459 19.7763 107.624C20.264 107.789 20.8215 107.72 21.4486 107.419L24.3032 106.045L24.8028 107.083Z" fill="white"/>
<path d="M21.136 98.3702L19.8657 98.809L19.6471 98.9481L17.4808 99.6965C17.0195 99.8559 16.7111 100.115 16.5557 100.473C16.39 100.827 16.3999 101.272 16.5854 101.809C16.7082 102.164 16.8889 102.491 17.1274 102.789C17.3584 103.091 17.6127 103.324 17.8903 103.491L17.2304 104.227C16.8737 104.003 16.5567 103.698 16.2792 103.311C15.9916 102.92 15.7655 102.486 15.6009 102.009C15.3162 101.185 15.2971 100.481 15.5437 99.896C15.7903 99.3114 16.3257 98.8768 17.1499 98.592L20.7794 97.338L21.136 98.3702ZM21.8859 100.32C22.04 100.766 22.1003 101.186 22.0666 101.578C22.0303 101.963 21.9112 102.292 21.7093 102.565C21.4998 102.84 21.2249 103.037 20.8846 103.155C20.5595 103.267 20.2384 103.293 19.9215 103.233C19.602 103.166 19.3028 102.986 19.0238 102.693C18.7423 102.392 18.4983 101.943 18.2919 101.346L17.6336 99.4406L18.4162 99.1702L19.0588 101.03C19.2469 101.575 19.4644 101.91 19.7111 102.036C19.9579 102.163 20.2099 102.182 20.467 102.093C20.7619 101.991 20.9595 101.791 21.06 101.494C21.153 101.2 21.1276 100.845 20.9839 100.429C20.8428 100.02 20.6293 99.6963 20.3433 99.4566C20.0547 99.2093 19.713 99.0776 19.3182 99.0617L19.9923 98.5876C20.3973 98.6084 20.7684 98.7638 21.1055 99.0536C21.4351 99.346 21.6952 99.7682 21.8859 100.32Z" fill="white"/>
<path d="M12.0646 87.382C11.986 86.876 12.0155 86.414 12.153 85.996C12.2905 85.5779 12.5443 85.2309 12.9143 84.9549C13.2831 84.6709 13.7758 84.4811 14.3924 84.3854L18.0091 83.8239L18.1858 84.9622L14.6996 85.5035C14.0909 85.598 13.6545 85.8115 13.3904 86.1439C13.1262 86.4764 13.0341 86.8995 13.1138 87.4134C13.1727 87.7928 13.3033 88.1126 13.5056 88.3726C13.7079 88.6327 13.9755 88.8178 14.3083 88.928C14.64 89.0304 15.035 89.046 15.4935 88.9748L18.7308 88.4722L18.9075 89.6106L15.4212 90.1518C14.8125 90.2463 14.3761 90.4598 14.112 90.7922C13.8466 91.1168 13.7545 91.5399 13.8355 92.0617C13.8932 92.4332 14.0231 92.749 14.2254 93.0091C14.4277 93.2691 14.6953 93.4543 15.0281 93.5645C15.361 93.6747 15.7567 93.6943 16.2152 93.6231L19.4524 93.1205L19.6291 94.2589L13.3444 95.2346L13.1751 94.1436L14.847 93.8841L14.4478 94.1282C14.006 93.9944 13.6386 93.7398 13.3455 93.3643C13.0524 92.9888 12.8636 92.5283 12.7789 91.9828C12.6856 91.382 12.7554 90.8409 12.9883 90.3595C13.2133 89.8793 13.6158 89.5254 14.1957 89.2977L14.0778 89.7896C13.5661 89.6748 13.1272 89.4029 12.7611 88.974C12.3949 88.5451 12.1628 88.0144 12.0646 87.382Z" fill="white"/>
<path d="M19.2078 59.7608C18.7593 61.0912 17.3224 61.8225 15.9692 61.3664C14.616 60.9103 13.9151 59.4583 14.3636 58.1278C14.8121 56.7974 16.2717 56.0737 17.6022 56.5222C18.944 56.9745 19.6563 58.4303 19.2078 59.7608Z" fill="white"/>
<path d="M32.4497 39.3741L27.8876 34.9427L28.6903 34.1164L30.627 35.9976L33.152 33.3981L31.2153 31.5168L32.018 30.6905L36.5801 35.1219L35.7774 35.9482L33.8665 34.0921L31.3414 36.6916L33.2523 38.5477L32.4497 39.3741Z" fill="white"/>
<path d="M42.2662 30.2875L41.4403 29.2272L41.2381 29.0653L39.8297 27.257C39.5299 26.872 39.1852 26.6639 38.7958 26.6326C38.4077 26.59 37.9897 26.7433 37.5415 27.0923C37.2449 27.3234 36.9939 27.6 36.7885 27.9222C36.5783 28.2381 36.4392 28.5542 36.3714 28.8707L35.4618 28.4841C35.5583 28.0742 35.7447 27.6756 36.0209 27.2881C36.2984 26.8893 36.636 26.5351 37.0337 26.2254C37.7216 25.6896 38.382 25.4439 39.0149 25.4884C39.6479 25.5329 40.2322 25.8991 40.7681 26.587L43.1277 29.6165L42.2662 30.2875ZM40.6631 31.6274C40.2908 31.9174 39.9134 32.1099 39.5311 32.2049C39.155 32.295 38.8053 32.2885 38.4817 32.1856C38.1533 32.0764 37.8785 31.8798 37.6573 31.5958C37.4459 31.3244 37.3173 31.0291 37.2714 30.7098C37.2319 30.3857 37.3057 30.0443 37.4928 29.6856C37.6862 29.322 38.0322 28.9461 38.5308 28.5577L40.1213 27.3189L40.6301 27.9722L39.0775 29.1815C38.6231 29.5354 38.3759 29.8496 38.3361 30.1239C38.2963 30.3983 38.36 30.6428 38.5271 30.8574C38.7189 31.1035 38.9715 31.2261 39.2852 31.2252C39.5939 31.218 39.9218 31.0792 40.2689 30.8088C40.6098 30.5434 40.8474 30.2366 40.9819 29.8885C41.1227 29.5354 41.1368 29.1695 41.0243 28.7907L41.6908 29.2754C41.802 29.6655 41.7749 30.0668 41.6096 30.4795C41.4393 30.8859 41.1239 31.2685 40.6631 31.6274Z" fill="white"/>
<path d="M45.2557 28.0586L42.0411 22.5709L47.125 19.5927L50.3397 25.0805L49.3457 25.6628L46.4949 20.7963L46.8786 20.9053L43.3064 22.9978L43.399 22.6098L46.2497 27.4763L45.2557 28.0586Z" fill="white"/>
<path d="M52.3375 23.968L49.9478 18.0741L51.0154 17.6412L52.7558 21.9338L54.6296 16.1758L55.5971 15.7836L57.9868 21.6775L56.9192 22.1104L55.1788 17.8178L53.3161 23.5713L52.3375 23.968Z" fill="white"/>
<path d="M63.8515 19.9677C63.223 20.1253 62.6264 20.1305 62.0616 19.9834C61.5047 19.8344 61.0272 19.5582 60.6291 19.1549C60.2311 18.7516 59.9553 18.2434 59.8016 17.6304C59.6479 17.0174 59.6514 16.4392 59.812 15.8958C59.9727 15.3524 60.2644 14.8875 60.6871 14.5011C61.1157 14.105 61.6442 13.8281 62.2728 13.6706C62.8315 13.5305 63.3563 13.5185 63.8473 13.6346C64.3441 13.741 64.7672 13.9813 65.1167 14.3555L64.4042 15.1156C64.1265 14.8636 63.8228 14.7047 63.4929 14.6389C63.1688 14.5635 62.8399 14.5676 62.5062 14.6512C62.1027 14.7524 61.7643 14.9321 61.4909 15.1903C61.2175 15.4486 61.0285 15.764 60.924 16.1366C60.8175 16.5014 60.8197 16.905 60.9306 17.3473C61.0415 17.7896 61.2309 18.1504 61.4989 18.4296C61.7668 18.7089 62.0822 18.8978 62.4451 18.9965C62.808 19.0952 63.1913 19.094 63.5948 18.9928C63.9284 18.9092 64.2213 18.7615 64.4734 18.5499C64.7313 18.3285 64.9232 18.0412 65.0491 17.688L66.033 18.0104C65.8995 18.4975 65.6407 18.9129 65.2568 19.2566C64.8787 19.5906 64.4102 19.8276 63.8515 19.9677Z" fill="white"/>
<path d="M72.6448 18.3182L72.4846 16.9837L72.395 16.7407L72.1218 14.465C72.0637 13.9805 71.8759 13.6244 71.5584 13.3966C71.248 13.1599 70.8108 13.0754 70.2469 13.1431C69.8736 13.1879 69.5158 13.2953 69.1736 13.4653C68.8305 13.6273 68.5482 13.8264 68.3268 14.0625L67.7472 13.2619C68.0414 12.9606 68.4068 12.7154 68.8433 12.526C69.2869 12.3277 69.7588 12.1985 70.2592 12.1384C71.125 12.0345 71.8175 12.1649 72.3367 12.5296C72.8558 12.8943 73.1674 13.5096 73.2713 14.3754L73.729 18.188L72.6448 18.3182ZM70.5803 18.6385C70.1116 18.6948 69.6891 18.6649 69.3126 18.549C68.944 18.4321 68.6477 18.2461 68.4237 17.9909C68.1987 17.7279 68.0648 17.4176 68.0219 17.0602C67.9809 16.7186 68.0231 16.3993 68.1486 16.1023C68.2821 15.8042 68.5215 15.5499 68.8668 15.3392C69.2201 15.1276 69.7105 14.9841 70.338 14.9088L72.3396 14.6685L72.4383 15.4906L70.4843 15.7252C69.9124 15.7938 69.5387 15.9354 69.363 16.1499C69.1873 16.3643 69.1156 16.6066 69.1481 16.8767C69.1852 17.1864 69.3384 17.4219 69.6075 17.5829C69.8757 17.7361 70.2282 17.7864 70.6651 17.734C71.094 17.6825 71.4559 17.5423 71.7507 17.3136C72.0535 17.0838 72.2544 16.7777 72.3535 16.3952L72.6743 17.1544C72.5682 17.5458 72.3379 17.8756 71.9833 18.1438C71.6278 18.404 71.1601 18.5689 70.5803 18.6385Z" fill="white"/>
<path d="M77.2178 18.0107L77.1741 12.3588L77.4645 12.6566L74.8485 12.6768L74.8407 11.6688L80.6486 11.624L80.6564 12.6319L78.0524 12.6521L78.3261 12.3499L78.3697 18.0018L77.2178 18.0107Z" fill="white"/>
<path d="M86.3368 14.2075C87.1389 14.3056 87.7305 14.5571 88.1117 14.9622C88.4929 15.3672 88.6469 15.8957 88.5737 16.5476C88.497 17.2313 88.2071 17.7341 87.704 18.056C87.2019 18.37 86.5299 18.4756 85.6881 18.3731L82.9466 18.0533L83.6561 11.733L84.8009 11.8615L84.5613 13.9961L86.3368 14.2075ZM85.6904 17.4919C86.2062 17.5578 86.6074 17.4982 86.8938 17.313C87.1882 17.1287 87.3591 16.8259 87.4064 16.4045C87.4528 15.9911 87.3555 15.6743 87.1146 15.454C86.8737 15.2338 86.4913 15.0902 85.9675 15.0234L84.4676 14.8308L84.1892 17.3113L85.6904 17.4919Z" fill="white"/>
<path d="M93.7504 19.6821L95.645 13.6109L98.463 14.4903C99.1732 14.7119 99.6878 15.0234 100.007 15.4246C100.336 15.8206 100.423 16.2668 100.268 16.7632C100.113 17.2596 99.7979 17.5844 99.3226 17.7378C98.8574 17.8859 98.3078 17.8611 97.6739 17.6633L97.9387 17.4191C98.6642 17.6455 99.1609 17.9472 99.4288 18.3241C99.6967 18.701 99.7496 19.1491 99.5875 19.6684C99.4231 20.1953 99.0958 20.5458 98.6058 20.7197C98.1257 20.8883 97.481 20.8463 96.6715 20.5937L93.7504 19.6821ZM95.0917 19.1705L96.8558 19.721C97.314 19.864 97.6791 19.9025 97.9511 19.8365C98.2255 19.7629 98.4116 19.5696 98.5093 19.2565C98.6094 18.9357 98.5751 18.6694 98.4066 18.4576C98.2481 18.2405 97.9435 18.0617 97.4929 17.9211L95.6601 17.3491L95.0917 19.1705ZM95.9068 16.5587L97.5563 17.0735C97.9763 17.2046 98.3171 17.2271 98.5786 17.1411C98.8501 17.0498 99.0299 16.8629 99.1181 16.5804C99.2087 16.2902 99.1659 16.038 98.9897 15.8237C98.8211 15.6119 98.5269 15.4405 98.1068 15.3094L96.4573 14.7946L95.9068 16.5587Z" fill="white"/>
<path d="M107.327 25.0419C106.76 24.7452 106.401 24.3629 106.248 23.895C106.096 23.427 106.168 22.9095 106.464 22.3424L109.167 17.1746L110.188 17.7085L107.507 22.8338C107.348 23.1386 107.3 23.4114 107.364 23.6524C107.434 23.897 107.611 24.0934 107.895 24.2417C108.214 24.4086 108.526 24.459 108.831 24.393L108.767 25.2936C108.54 25.3467 108.301 25.3477 108.047 25.2966C107.801 25.2491 107.561 25.1642 107.327 25.0419ZM107.126 18.7475L107.565 17.9075L111.159 19.7874L110.72 20.6274L107.126 18.7475Z" fill="white"/>
<path d="M112.519 28.1046C111.956 27.7229 111.538 27.2702 111.265 26.7466C110.998 26.2275 110.883 25.6852 110.918 25.1196C110.96 24.5586 111.159 24.0166 111.514 23.4935C111.868 22.9705 112.295 22.5834 112.794 22.3322C113.3 22.0855 113.828 21.9843 114.378 22.0286C114.939 22.0708 115.471 22.2626 115.974 22.6039C116.484 22.9496 116.858 23.3675 117.096 23.8576C117.334 24.3476 117.423 24.872 117.363 25.4307C117.314 25.9872 117.105 26.537 116.737 27.0799C116.71 27.1196 116.675 27.1637 116.633 27.2122C116.597 27.2651 116.56 27.3125 116.522 27.3544L112.043 24.3165L112.508 23.6313L116.49 26.3323L115.941 26.308C116.177 25.9748 116.312 25.6264 116.346 25.2628C116.38 24.8992 116.317 24.557 116.157 24.2362C116.009 23.9133 115.766 23.6373 115.428 23.4083C115.097 23.1837 114.751 23.0601 114.39 23.0372C114.033 23.0077 113.689 23.0793 113.36 23.252C113.034 23.418 112.755 23.6732 112.521 24.0175L112.414 24.1764C112.176 24.5273 112.042 24.8956 112.012 25.2815C111.993 25.6652 112.078 26.032 112.266 26.3818C112.454 26.7317 112.737 27.0346 113.114 27.2906C113.425 27.5016 113.743 27.6395 114.066 27.7042C114.396 27.7734 114.729 27.7672 115.065 27.6856L115.174 28.6583C114.747 28.7747 114.305 28.7845 113.849 28.6877C113.399 28.5953 112.956 28.401 112.519 28.1046Z" fill="white"/>
<path d="M117.402 31.5782L123.175 24.7993L124.053 25.5462L118.28 32.3251L117.402 31.5782Z" fill="white"/>
<path d="M122.681 36.5163C122.212 36.0234 121.9 35.492 121.745 34.9222C121.595 34.3582 121.598 33.8037 121.754 33.2588C121.914 32.7196 122.224 32.2324 122.682 31.797C123.14 31.3616 123.64 31.0744 124.181 30.9354C124.727 30.8022 125.265 30.8158 125.792 30.9764C126.332 31.1372 126.811 31.438 127.229 31.8787C127.654 32.3252 127.93 32.8133 128.058 33.3428C128.186 33.8723 128.161 34.4036 127.984 34.9366C127.817 35.47 127.496 35.9626 127.021 36.4145C126.986 36.4476 126.943 36.4833 126.891 36.5215C126.844 36.5656 126.798 36.6041 126.752 36.6369L123.024 32.7139L123.624 32.1435L126.939 35.6315L126.408 35.4907C126.709 35.2154 126.915 34.9038 127.026 34.5558C127.136 34.2077 127.148 33.86 127.061 33.5126C126.985 33.1655 126.806 32.8441 126.525 32.5483C126.249 32.2584 125.937 32.0637 125.589 31.9643C125.247 31.8594 124.896 31.8561 124.537 31.9545C124.184 32.0474 123.856 32.2371 123.555 32.5237L123.416 32.656C123.108 32.9481 122.899 33.2794 122.788 33.6501C122.688 34.021 122.692 34.3974 122.801 34.7793C122.91 35.1612 123.122 35.5175 123.436 35.848C123.695 36.1205 123.976 36.3229 124.278 36.4551C124.586 36.5931 124.912 36.658 125.258 36.6498L125.157 37.6233C124.715 37.646 124.281 37.5614 123.856 37.3695C123.436 37.1834 123.044 36.899 122.681 36.5163Z" fill="white"/>
<path d="M126.216 44.2626C125.879 43.7854 125.621 43.2728 125.44 42.7249C125.257 42.1881 125.191 41.6916 125.241 41.2352L126.285 41.1745C126.246 41.5639 126.292 41.9767 126.424 42.4127C126.549 42.8533 126.747 43.2665 127.019 43.6522C127.452 44.2668 127.914 44.6164 128.405 44.7012C128.896 44.7859 129.435 44.6208 130.023 44.2059L131.122 43.4312L132.22 42.8031L133.225 42.0209L134.647 41.018L135.277 41.9104L130.785 45.0781C129.87 45.7236 129.035 45.9697 128.281 45.8164C127.527 45.6631 126.839 45.1452 126.216 44.2626ZM128.31 42.6095C127.955 42.1061 127.741 41.5813 127.669 41.0349C127.608 40.4905 127.685 39.9669 127.898 39.4641C128.116 38.9679 128.473 38.5445 128.97 38.1941C129.473 37.8391 129.992 37.6445 130.526 37.6105C131.071 37.5784 131.587 37.6847 132.072 37.9294C132.563 38.1807 132.986 38.558 133.341 39.0614C133.654 39.5059 133.849 39.9758 133.924 40.471C134.005 40.9616 133.936 41.4462 133.716 41.9248C133.5 42.4099 133.107 42.853 132.539 43.2541C131.976 43.6507 131.431 43.8692 130.901 43.9098C130.376 43.9569 129.89 43.8642 129.442 43.6318C129.001 43.3948 128.624 43.0541 128.31 42.6095ZM129.21 42.1364C129.454 42.4829 129.743 42.7394 130.076 42.906C130.409 43.0726 130.756 43.1412 131.117 43.1117C131.482 43.0888 131.832 42.9598 132.165 42.7246C132.499 42.4894 132.737 42.2035 132.882 41.8668C133.031 41.5366 133.079 41.1891 133.027 40.8242C132.982 40.4547 132.837 40.0967 132.593 39.7502C132.349 39.4038 132.058 39.1439 131.72 38.9708C131.394 38.7996 131.048 38.7255 130.682 38.7484C130.321 38.7778 129.974 38.9102 129.641 39.1453C129.307 39.3805 129.066 39.6631 128.917 39.9933C128.773 40.3301 128.723 40.6832 128.769 41.0526C128.818 41.4287 128.965 41.7899 129.21 42.1364Z" fill="white"/>
<path d="M131.97 48.6621L137.584 45.6728L138.103 46.6472L136.577 47.4594L136.908 47.1611C137.379 47.1096 137.815 47.2129 138.215 47.4711C138.615 47.7292 138.958 48.1266 139.244 48.6633L138.259 49.1878C138.244 49.1417 138.224 49.0974 138.202 49.0551C138.183 49.0198 138.164 48.9845 138.146 48.9492C137.856 48.4054 137.464 48.0612 136.97 47.9164C136.476 47.7716 135.922 47.8628 135.308 48.1899L132.511 49.679L131.97 48.6621Z" fill="white"/>
<path d="M135.991 57.1944L137.242 56.7034L137.455 56.5555L139.589 55.7182C140.043 55.5399 140.34 55.2685 140.481 54.904C140.632 54.544 140.603 54.0996 140.396 53.5708C140.259 53.2208 140.065 52.9016 139.814 52.6133C139.571 52.322 139.307 52.0989 139.023 51.944L139.652 51.1816C140.017 51.3905 140.347 51.6823 140.64 52.0571C140.943 52.4365 141.187 52.8607 141.371 53.3299C141.69 54.1416 141.738 54.8446 141.516 55.4389C141.294 56.0331 140.777 56.4896 139.965 56.8081L136.39 58.2109L135.991 57.1944ZM135.161 55.277C134.989 54.8376 134.912 54.4211 134.929 54.0275C134.949 53.6414 135.055 53.3079 135.245 53.0268C135.443 52.7429 135.71 52.5352 136.045 52.4037C136.365 52.278 136.685 52.2385 137.004 52.2852C137.326 52.3393 137.632 52.5069 137.923 52.7881C138.217 53.0767 138.479 53.5152 138.71 54.1035L139.447 55.9802L138.676 56.2827L137.957 54.4507C137.746 53.9145 137.515 53.5884 137.264 53.4724C137.012 53.3563 136.759 53.348 136.506 53.4473C136.216 53.5613 136.026 53.7688 135.938 54.0698C135.857 54.3679 135.898 54.7217 136.058 55.1313C136.216 55.5334 136.443 55.8484 136.738 56.0761C137.037 56.3113 137.384 56.4287 137.779 56.4283L137.125 56.9299C136.719 56.9258 136.342 56.7859 135.994 56.5103C135.652 56.2317 135.375 55.8206 135.161 55.277Z" fill="white"/>
<path d="M145.521 67.7763C145.621 68.2784 145.611 68.7413 145.491 69.1647C145.371 69.5882 145.133 69.9456 144.774 70.237C144.418 70.5362 143.934 70.7466 143.322 70.8682L139.732 71.5813L139.507 70.4514L142.968 69.764C143.572 69.6439 143.999 69.4123 144.249 69.069C144.499 68.7257 144.573 68.2991 144.472 67.789C144.397 67.4124 144.253 67.0984 144.04 66.8471C143.827 66.5958 143.552 66.4221 143.214 66.326C142.879 66.2377 142.483 66.2387 142.028 66.3292L138.815 66.9675L138.591 65.8376L142.051 65.1501C142.655 65.0301 143.082 64.7984 143.332 64.4552C143.584 64.1197 143.658 63.6931 143.555 63.1752C143.482 62.8064 143.339 62.4964 143.126 62.2451C142.912 61.9938 142.637 61.82 142.3 61.7239C141.963 61.6278 141.567 61.6249 141.112 61.7153L137.898 62.3537L137.674 61.2238L143.912 59.9845L144.127 61.0673L142.468 61.397L142.856 61.1363C143.303 61.2514 143.681 61.4903 143.99 61.8532C144.298 62.216 144.506 62.6681 144.614 63.2095C144.732 63.8059 144.685 64.3494 144.473 64.8402C144.268 65.3295 143.881 65.7 143.311 65.9519L143.409 65.4555C143.925 65.5487 144.375 65.8019 144.758 66.215C145.142 66.6281 145.397 67.1485 145.521 67.7763Z" fill="white"/>
</svg>
